HIERARCHY
ROOT Hips
{
	OFFSET 0.00000 0.00000 0.00000
	CHANNELS 6 Xposition Yposition Zposition Zrotation Yrotation Xrotation 
	JOINT LHipJoint
	{
		OFFSET 0 0 0
		CHANNELS 3 Zrotation Yrotation Xrotation
		JOINT LeftHip
		{
			OFFSET 1.85590 -1.73949 0.84976
			CHANNELS 3 Zrotation Yrotation Xrotation
			JOINT LeftKnee
			{
				OFFSET 2.36836 -6.50702 0.00000
				CHANNELS 3 Zrotation Yrotation Xrotation
				JOINT LeftAnkle
				{
					OFFSET 2.53268 -6.95849 0.00000
					CHANNELS 3 Zrotation Yrotation Xrotation
					JOINT LeftToe
					{
						OFFSET 0.15935 -0.43781 1.94506
						CHANNELS 3 Zrotation Yrotation Xrotation
						End Site
						{
							OFFSET 0.00000 -0.00000 1.00661
						}
					}
				}
			}
		}
	}
	JOINT RHipJoint
	{
		OFFSET 0 0 0
		CHANNELS 3 Zrotation Yrotation Xrotation
		JOINT RightHip
		{
			OFFSET -1.68297 -1.73949 0.84976
			CHANNELS 3 Zrotation Yrotation Xrotation
			JOINT RightKnee
			{
				OFFSET -2.44709 -6.72334 0.00000
				CHANNELS 3 Zrotation Yrotation Xrotation
				JOINT RightAnkle
				{
					OFFSET -2.43843 -6.69953 0.00000
					CHANNELS 3 Zrotation Yrotation Xrotation
					JOINT RightToe
					{
						OFFSET -0.20854 -0.57295 2.02172
						CHANNELS 3 Zrotation Yrotation Xrotation
						End Site
						{
							OFFSET -0.00000 -0.00000 1.05594
						}
					}
				}
			}
		}
	}
	JOINT lowerback
	{
		OFFSET 0 0 0
		CHANNELS 3 Zrotation Yrotation Xrotation
		JOINT Chest
		{
			OFFSET -0.01560 2.23971 -0.03712
			CHANNELS 3 Zrotation Yrotation Xrotation
			JOINT Chest2
			{
				OFFSET 0.05490 2.19225 -0.19086
				CHANNELS 3 Zrotation Yrotation Xrotation
				JOINT lowerneck
				{
					OFFSET 0 0 0
					CHANNELS 3 Zrotation Yrotation Xrotation
					JOINT Neck
					{
						OFFSET -0.12403 1.43168 0.27585
						CHANNELS 3 Zrotation Yrotation Xrotation
						JOINT Head
						{
							OFFSET 0.17855 1.46173 -0.32578
							CHANNELS 3 Zrotation Yrotation Xrotation
							End Site
							{
								OFFSET 0.07217 1.51590 -0.14537
							}
						}
					}
				}
				JOINT LeftCollar
				{
					OFFSET 0 0 0
					CHANNELS 3 Zrotation Yrotation Xrotation
					JOINT LeftShoulder
					{
						OFFSET 3.27650 0.85634 0.05396
CHANNELS 3 Zrotation Xrotation Yrotation
						JOINT LeftElbow
						{
OFFSET 0 -4.967550 0.000000
CHANNELS 3 Zrotation Xrotation Yrotation
							JOINT LeftWrist
							{
OFFSET 0 -3.357510 0.000000
CHANNELS 3 Zrotation Xrotation Yrotation
								JOINT lhand
								{
									OFFSET 0 0 0
CHANNELS 3 Zrotation Xrotation Yrotation
									JOINT LFingers
									{
OFFSET 0 -0.796970 0.000000
CHANNELS 3 Zrotation Xrotation Yrotation
										End Site
										{
OFFSET 0 -0.642540 0.000000
										}
									}
								}
								JOINT LThumb
								{
OFFSET 0 0.000000 0.000000
CHANNELS 3 Zrotation Xrotation Yrotation
									End Site
									{
OFFSET 0 -0.652350 0.652350
									}
								}
							}
						}
					}
				}
				JOINT RightCollar
				{
					OFFSET 0 0 0
					CHANNELS 3 Zrotation Yrotation Xrotation
					JOINT RightShoulder
					{
						OFFSET -3.24434 1.02034 0.34688
CHANNELS 3 Zrotation Xrotation Yrotation
						JOINT RightElbow
						{
OFFSET 0 -5.218590 -0.000000
CHANNELS 3 Zrotation Xrotation Yrotation
							JOINT RightWrist
							{
OFFSET 0 -3.365040 0.000000
CHANNELS 3 Zrotation Xrotation Yrotation
								JOINT rhand
								{
									OFFSET 0 0 0
CHANNELS 3 Zrotation Xrotation Yrotation
									JOINT RFingers
									{
OFFSET 0 -0.620440 0.000000
CHANNELS 3 Zrotation Xrotation Yrotation
										End Site
										{
OFFSET 0 -0.500220 0.000000
										}
									}
								}
								JOINT RThumb
								{
OFFSET 0 0.000000 0.000000
CHANNELS 3 Zrotation Xrotation Yrotation
									End Site
									{
OFFSET 0 -0.507860 0.507860
									}
								}
							}
						}
					}
				}
			}
		}
	}
}
MOTION
Frames: 7
Frame Time: 0.008333333333333333
9.718584 16.729528 -0.225445 1.195986 -7.495216 8.192146 0.000000 0.000000 0.000000 -24.599208 -1.708215 -32.390323 3.548780 11.533939 34.102997 0.464035 2.380772 -13.956730 0.003675 -0.288788 -0.793575 0.000000 0.000000 0.000000 15.590333 1.145016 -8.744035 -10.223621 -17.532000 60.230798 0.276888 -10.428850 1.176022 -0.659448 5.193557 -14.461446 -2.543148 1.075774 -5.698084 1.452263 1.548762 -1.892430 3.023387 0.780257 1.136667 -12.827910 -4.778898 -20.501593 13.233233 -5.755556 18.765978 6.028642 -2.109905 10.147035 0.000000 0.000000 0.000000 5.810824 6.020875 -37.498772 11.857017 -19.589741 2.054245 10.539614 -2.314807 21.995409 0.000000 0.000000 0.000000 -7.125000 0.000000 0.000000 -11.498234 8.005928 -9.993793 0.000000 0.000000 0.000000 -10.022472 15.593355 36.185751 -22.504823 -33.542768 -6.862685 -33.829322 -8.001327 20.464208 0.000000 0.000000 0.000000 7.125000 0.000000 0.000000 -5.682159 54.084092 1.279797
9.736850 16.752739 -0.110246 1.399502 -7.387567 8.073801 0.000000 0.000000 0.000000 -25.009220 -1.673598 -31.512556 3.455191 11.397457 33.632671 0.476424 2.486700 -14.182613 0.011029 -0.668343 -1.836710 0.000000 0.000000 0.000000 15.412505 1.385393 -9.792841 -10.569365 -17.716908 61.373734 0.326458 -10.576126 -0.558769 -0.628377 5.064177 -14.093439 -2.673111 0.932760 -5.765974 1.431083 1.367592 -1.766818 3.066808 0.685199 1.313559 -12.748079 -4.731243 -20.632616 13.178671 -5.691465 18.836993 6.007313 -2.076152 10.182374 0.000000 0.000000 0.000000 5.997553 5.225530 -38.165724 11.952784 -19.733832 2.086346 11.282213 -3.171654 22.143590 0.000000 0.000000 0.000000 -7.125000 0.000000 0.000000 -11.037606 7.781230 -9.625112 0.000000 0.000000 0.000000 -9.926331 15.396547 35.529922 -22.523527 -33.563350 -6.873146 -32.943060 -8.003994 19.968289 0.000000 0.000000 0.000000 7.125000 0.000000 0.000000 -4.773417 53.328073 0.980663
9.758571 16.778874 0.007427 1.325519 -7.253416 7.962173 0.000000 0.000000 0.000000 -25.121622 -1.584861 -30.629499 3.374308 11.277428 33.221597 0.496594 2.518346 -14.467615 0.017999 -0.865800 -2.379606 0.000000 0.000000 0.000000 15.514495 1.648172 -10.746754 -10.855410 -17.863228 62.310651 0.342141 -10.423453 -2.234053 -0.535578 4.687429 -13.019618 -2.446763 0.826917 -5.820862 1.441874 1.214907 -1.641606 2.943289 0.604342 1.488960 -12.510709 -4.679557 -20.710333 12.997953 -5.642653 18.853192 5.906376 -2.053295 10.181315 0.000000 0.000000 0.000000 6.225128 4.371183 -38.614340 11.943456 -19.719756 2.083165 11.883193 -3.670605 22.628864 0.000000 0.000000 0.000000 -7.125000 0.000000 0.000000 -10.674578 7.234412 -9.414479 0.000000 0.000000 0.000000 -9.952880 15.435676 35.418892 -22.787563 -33.855260 -7.019829 -32.767349 -8.544277 19.482945 0.000000 0.000000 0.000000 7.125000 0.000000 0.000000 -4.642619 52.739103 0.885779
9.779049 16.813173 0.122883 0.925383 -7.145463 7.872887 0.000000 0.000000 0.000000 -24.839077 -1.404784 -29.810636 3.295726 11.159034 32.818230 0.515422 2.491636 -14.697874 0.021317 -0.941659 -2.588387 0.000000 0.000000 0.000000 16.051506 2.025619 -11.651205 -11.080510 -17.974171 63.042542 0.333017 -10.172522 -3.420092 -0.611222 5.003547 -13.918638 -1.903360 0.793355 -5.762711 1.507030 1.136466 -1.572601 2.698798 0.564283 1.542853 -12.199435 -4.618762 -20.681447 12.794106 -5.618377 18.935967 5.782464 -2.042366 10.184931 0.000000 0.000000 0.000000 6.488796 3.554532 -38.769333 11.990757 -19.790828 2.099202 11.853501 -3.352005 22.742476 0.000000 0.000000 0.000000 -7.125000 0.000000 0.000000 -10.696554 7.124726 -9.457796 0.000000 0.000000 0.000000 -10.021288 15.641995 35.593905 -23.164899 -34.268635 -7.230979 -33.091197 -9.091565 19.475986 0.000000 0.000000 0.000000 7.125000 0.000000 0.000000 -4.987749 52.796988 0.958882
9.793349 16.828852 0.225136 0.442807 -6.954138 7.786140 0.000000 0.000000 0.000000 -24.430670 -1.203208 -29.118990 3.211219 11.029130 32.378467 0.522399 2.367590 -14.719324 0.022264 -0.962247 -2.644983 0.000000 0.000000 0.000000 16.762794 2.410853 -12.620406 -11.281741 -18.069962 63.692840 0.333964 -10.208185 -4.451662 -0.721399 5.424789 -15.124820 -1.471092 0.664657 -5.505314 1.743839 0.933856 -1.595602 2.681483 0.465821 1.391068 -12.075302 -4.559237 -20.816003 12.559364 -5.536799 19.323958 5.700110 -2.017470 10.324311 0.000000 0.000000 0.000000 6.620423 2.931456 -39.206942 12.125917 -19.993093 2.145203 11.733158 -3.472692 22.442955 0.000000 0.000000 0.000000 -7.125000 0.000000 0.000000 -10.762712 7.435790 -9.451852 0.000000 0.000000 0.000000 -10.095113 15.756394 35.330478 -23.325385 -34.442645 -7.321516 -33.349025 -8.470384 20.231982 0.000000 0.000000 0.000000 7.125000 0.000000 0.000000 -5.179763 53.713642 1.112648
9.807354 16.843202 0.331668 0.525459 -6.775136 7.625235 0.000000 0.000000 0.000000 -24.658404 -0.973149 -28.331859 3.118743 10.884467 31.891700 0.548341 2.050066 -14.882155 0.017604 -0.853409 -2.345545 0.000000 0.000000 0.000000 16.752271 2.635521 -13.599052 -11.454711 -18.150258 64.249351 0.302444 -9.925373 -5.791967 -0.684367 5.287739 -14.731317 -1.656000 0.464161 -5.352476 1.899258 0.672289 -1.562374 2.927745 0.335260 1.351295 -12.035732 -4.512993 -21.112085 12.295771 -5.422311 19.750910 5.628530 -1.982982 10.506121 0.000000 0.000000 0.000000 6.657452 2.233557 -39.893518 12.247868 -20.175287 2.187071 12.202100 -4.505567 22.580489 0.000000 0.000000 0.000000 -7.125000 0.000000 0.000000 -10.474311 7.246265 -9.228598 0.000000 0.000000 0.000000 -10.234094 15.730150 34.859407 -23.351130 -34.470552 -7.336050 -33.305938 -8.301386 20.321584 0.000000 0.000000 0.000000 7.125000 0.000000 0.000000 -5.122663 53.806656 1.111456
9.822688 16.856850 0.440475 1.004746 -6.657711 7.465939 0.000000 0.000000 0.000000 -25.334560 -0.727414 -27.559428 3.034582 10.750459 31.443272 0.588305 1.644893 -15.176835 0.007809 -0.516491 -1.419290 0.000000 0.000000 0.000000 16.255968 2.904987 -14.622072 -11.612461 -18.221727 64.754740 0.243853 -9.423345 -7.185939 -0.653374 5.170073 -14.394291 -2.138960 0.292939 -5.354812 1.867963 0.470613 -1.505349 3.155505 0.232229 1.419757 -11.940438 -4.448956 -21.195836 12.073916 -5.313521 19.933803 5.552401 -1.948686 10.561682 0.000000 0.000000 0.000000 6.735940 1.428316 -40.334156 12.317923 -20.279744 2.211227 12.846355 -5.433508 23.184359 0.000000 0.000000 0.000000 -7.125000 0.000000 0.000000 -10.096643 6.568682 -9.017687 0.000000 0.000000 0.000000 -10.390337 15.711404 34.690097 -23.432470 -34.558263 -7.382149 -33.709199 -8.449983 20.238545 0.000000 0.000000 0.000000 7.125000 0.000000 0.000000 -5.570028 53.797795 1.207783
